<svg data-v-29081953="" xmlns="http://www.w3.org/2000/svg" viewBox="0 0 300 300"><!----><defs data-v-29081953=""><linearGradient data-v-29081953="" gradientTransform="rotate(25)" id="239f580a-c337-4691-95a8-da7dd8437454" x1="0%" y1="0%" x2="100%" y2="0%"><stop data-v-29081953="" offset="0%" stop-color="#51A4FB" stop-opacity="1"></stop><stop data-v-29081953="" offset="100%" stop-color="#51A4FB" stop-opacity="1"></stop></linearGradient></defs><rect data-v-29081953="" fill="url(#239f580a-c337-4691-95a8-da7dd8437454)" x="0" y="0" width="300px" height="300px" class="logo-background-square"></rect><defs data-v-29081953=""><!----></defs><g data-v-29081953="" id="1f2cfcf0-dd88-4392-9cc0-9284768f49df" fill="#ffffff" transform="matrix(2.8478897928762548,0,0,2.8478897928762548,130.13622889920356,124.03757544989243)"><path d="M2.49 10.50L5.15 10.50L6.37 5.00C6.57 4.07 6.76 3.00 6.78 2.93C6.79 3.07 6.96 4.06 7.17 5.00L8.39 10.50L11.06 10.50L13.48 0.71L11.21 0.71L10.18 5.95L9.72 8.36C9.70 8.30 9.52 7.20 9.20 5.68L8.09 0.71L5.52 0.71L4.44 5.68C4.10 7.22 3.91 8.36 3.91 8.36C3.91 8.36 3.65 7.22 3.40 5.95L2.34 0.71L0.07 0.71ZM17.25 10.64C19.56 10.64 20.29 9.55 20.57 8.33L18.49 8.20C18.37 8.93 18.00 9.24 17.32 9.24C16.27 9.24 15.93 8.30 15.93 7.35L15.93 7.15L20.68 7.15C20.68 7.15 20.71 6.83 20.71 6.50C20.71 4.41 19.85 2.86 17.26 2.86C15.26 2.86 13.61 3.78 13.61 6.71C13.61 9.35 14.91 10.64 17.25 10.64ZM17.22 4.17C17.98 4.17 18.45 4.56 18.45 5.87L18.45 5.89L15.93 5.89C15.97 4.56 16.51 4.17 17.22 4.17ZM21.90 7.76L25.55 7.76L25.55 5.91L21.90 5.91ZM31.82 10.64C33.81 10.64 35.48 9.90 36.50 8.93L36.50 5.26L32.19 5.26L32.19 6.90L34.47 6.90L34.47 8.16C33.98 8.54 33.03 8.90 31.92 8.90C29.93 8.90 29.08 7.52 29.08 5.56C29.08 3.61 29.90 2.32 31.86 2.32C33.18 2.32 33.94 3.04 34.22 3.81L36.29 3.19C35.73 1.60 34.31 0.57 31.85 0.57C28.42 0.57 26.81 2.49 26.81 5.56C26.81 8.47 28.27 10.64 31.82 10.64ZM43.37 6.75C43.37 8.41 42.87 9.18 41.80 9.18C40.85 9.18 40.28 8.33 40.28 6.75C40.28 5.17 40.78 4.38 41.85 4.38C42.81 4.38 43.37 5.18 43.37 6.75ZM45.60 6.73C45.60 4.45 44.51 2.86 41.83 2.86C39.27 2.86 38.04 4.47 38.04 6.73C38.04 9.09 39.28 10.64 41.79 10.64C44.35 10.64 45.60 9.10 45.60 6.73Z"></path></g><defs data-v-29081953=""><!----></defs><g data-v-29081953="" id="8fe6f4a6-36b2-4722-8d01-3a56b3db0229" stroke="none" fill="#ffffff" transform="matrix(0.861274739002096,0,0,0.861274739002096,35.51448100157297,106.93583264908187)"><path d="M32.302 36.596L5.979 25.908l5.469-1.997 26.01 10.56zM44.692 31.671L18.37 20.983l5.468-1.997 26.011 10.56zM55.466 27.309L29.144 16.621l5.468-1.997 26.011 10.56zM31.531 47.455L7.105 37.538l-1.897-4.972 26.291 10.66zM31.531 56.002l-18.516-7.556-1.695-4.893 20.179 8.219zM31.531 64.634l-10.223-4.197-2.283-5.133 12.474 5.1zM35.526 72.919l29.345 12.457.001-33.399-29.346-12.471v33.413zm4.562-26.701l20.614 8.752v23.448l-20.614-8.751V46.218z"></path><path d="M83.089 44.584v-.427l-1.156.494 1.156-.501-.502-.204 11.911-5.051-29.234-11.586L36.06 38.882l29.204 12.411 12.243-5.192.534.217v.407l-12.386 5.253-.001 33.399L95 72.919V39.532l-11.911 5.052zm.75-5.333l-6.266 2.659-18.568-7.54 6.259-2.48 18.575 7.361zm-18.575 7.886l-18.576-7.885 7.06-2.798 18.748 7.613-7.232 3.07zM90.26 69.539L70.004 78.14V55.098l8.037-3.412v5.479l1.245-2.58.846.48.78-1.84.724 1.013.613-.613.84 1.382v-5.465l7.171-3.044v23.041z"></path><path d="M87.667 57.529c0 1.296-1.052 2.787-2.35 3.331-1.296.541-2.348-.07-2.348-1.367 0-1.299 1.052-2.79 2.348-3.331 1.298-.543 2.35.069 2.35 1.367zM80.641 60.467c0 1.296-1.052 2.786-2.351 3.329-1.296.543-2.348-.071-2.348-1.367 0-1.297 1.052-2.789 2.348-3.331 1.299-.541 2.351.071 2.351 1.369zM81.579 70.204c-3.589 1.5-6.657.217-7.294-3.05l1.738-1.039c.484 2.489 2.822 3.467 5.556 2.324 2.737-1.144 5.074-4.074 5.559-6.969l1.738-.414c-.637 3.8-3.705 7.648-7.297 9.148z"></path></g><defs data-v-29081953=""><!----></defs><g data-v-29081953="" id="abdd17d6-207c-4c7b-949b-b7e735f3a04d" fill="#ffffff" transform="matrix(0.3983790911087303,0,0,0.3983790911087303,129.88541283571882,163.50253133520187)"><path d="M5.04 2.21L1.13 2.21L1.13 11.48L5.04 11.48C7.25 11.48 9.30 9.74 9.30 6.85C9.30 3.95 7.25 2.21 5.04 2.21ZM5.00 10.49L2.18 10.49L2.18 3.21L5.00 3.21C6.97 3.21 8.25 4.86 8.25 6.85C8.25 8.83 6.97 10.49 5.00 10.49ZM24.81 3.22L24.81 2.21L17.99 2.21L17.99 11.48L24.81 11.48L24.81 10.47L19.04 10.47L19.04 7.35L24.19 7.35L24.19 6.33L19.04 6.33L19.04 3.22ZM33.50 2.21L33.50 11.48L39.61 11.48L39.61 10.47L34.55 10.47L34.55 2.21ZM49.01 2.21L47.96 2.21L47.96 11.48L49.01 11.48ZM64.75 2.21L61.54 10.29L58.34 2.21L57.19 2.21L60.94 11.48L62.15 11.48L65.90 2.21ZM80.89 3.22L80.89 2.21L74.07 2.21L74.07 11.48L80.89 11.48L80.89 10.47L75.12 10.47L75.12 7.35L80.28 7.35L80.28 6.33L75.12 6.33L75.12 3.22ZM90.64 7.92L93.86 7.92L96.10 11.48L97.34 11.48L94.91 7.74C95.94 7.50 97.15 6.90 97.15 5.11C97.15 3.35 95.93 2.21 94.02 2.21L89.59 2.21L89.59 11.48L90.64 11.48ZM90.64 3.21L93.90 3.21C95.21 3.21 96.10 3.93 96.10 5.11C96.10 6.55 94.84 6.93 93.84 6.93L90.64 6.93ZM107.00 2.21L105.95 2.21L105.95 11.48L107.00 11.48ZM123.21 2.21L123.21 10.01L117.49 2.21L116.27 2.21L116.27 11.48L117.32 11.48L117.32 3.65L123.05 11.48L124.26 11.48L124.26 2.21ZM137.51 2.10C134.72 2.10 132.94 4.21 132.94 6.85C132.94 9.48 134.65 11.59 137.48 11.59C139.16 11.59 140.25 10.74 140.84 9.84L140.84 11.48L141.81 11.48L141.81 6.55L137.45 6.55L137.45 7.50L140.84 7.50C140.84 9.44 139.24 10.57 137.56 10.57C135.31 10.57 133.99 8.93 133.99 6.85C133.99 4.76 135.34 3.12 137.59 3.12C139.01 3.12 140.01 3.74 140.57 4.73L141.72 4.73C141.04 3.18 139.50 2.10 137.51 2.10ZM150.26 10.05L150.26 11.48L151.62 11.48L151.62 10.05ZM177.30 3.22L177.30 2.21L170.48 2.21L170.48 11.48L177.30 11.48L177.30 10.47L171.53 10.47L171.53 7.35L176.68 7.35L176.68 6.33L171.53 6.33L171.53 3.22ZM192.46 2.21L189.25 10.29L186.05 2.21L184.90 2.21L188.65 11.48L189.85 11.48L193.61 2.21ZM208.60 3.22L208.60 2.21L201.78 2.21L201.78 11.48L208.60 11.48L208.60 10.47L202.83 10.47L202.83 7.35L207.98 7.35L207.98 6.33L202.83 6.33L202.83 3.22ZM218.34 7.92L221.56 7.92L223.80 11.48L225.05 11.48L222.61 7.74C223.65 7.50 224.85 6.90 224.85 5.11C224.85 3.35 223.64 2.21 221.73 2.21L217.29 2.21L217.29 11.48L218.34 11.48ZM218.34 3.21L221.61 3.21C222.92 3.21 223.80 3.93 223.80 5.11C223.80 6.55 222.54 6.93 221.55 6.93L218.34 6.93ZM237.26 7.81L241.14 2.21L239.86 2.21L236.73 6.72L233.59 2.21L232.32 2.21L236.21 7.81L236.21 11.48L237.26 11.48ZM255.85 2.21L248.33 2.21L248.33 3.22L251.57 3.22L251.57 11.48L252.62 11.48L252.62 3.22L255.85 3.22ZM270.62 2.21L270.62 6.33L265.23 6.33L265.23 2.21L264.18 2.21L264.18 11.48L265.23 11.48L265.23 7.35L270.62 7.35L270.62 11.48L271.67 11.48L271.67 2.21ZM281.99 2.21L280.94 2.21L280.94 11.48L281.99 11.48ZM298.20 2.21L298.20 10.01L292.47 2.21L291.26 2.21L291.26 11.48L292.31 11.48L292.31 3.65L298.03 11.48L299.25 11.48L299.25 2.21ZM312.49 2.10C309.71 2.10 307.93 4.21 307.93 6.85C307.93 9.48 309.64 11.59 312.47 11.59C314.15 11.59 315.24 10.74 315.83 9.84L315.83 11.48L316.79 11.48L316.79 6.55L312.44 6.55L312.44 7.50L315.83 7.50C315.83 9.44 314.23 10.57 312.55 10.57C310.30 10.57 308.98 8.93 308.98 6.85C308.98 4.76 310.32 3.12 312.58 3.12C313.99 3.12 315 3.74 315.56 4.73L316.71 4.73C316.02 3.18 314.48 2.10 312.49 2.10ZM325.25 10.05L325.25 11.48L326.61 11.48L326.61 10.05Z"></path></g></svg>