<svg data-v-29081953="" xmlns="http://www.w3.org/2000/svg" viewBox="0 0 300 300"><!----><defs data-v-29081953=""><linearGradient data-v-29081953="" gradientTransform="rotate(25)" id="bb5e5fb9-af42-41f4-aa23-adc6e5263aab" x1="0%" y1="0%" x2="100%" y2="0%"><stop data-v-29081953="" offset="0%" stop-color="#51A4FB" stop-opacity="1"></stop><stop data-v-29081953="" offset="100%" stop-color="#51A4FB" stop-opacity="1"></stop></linearGradient></defs><rect data-v-29081953="" fill="url(#bb5e5fb9-af42-41f4-aa23-adc6e5263aab)" x="0" y="0" width="300px" height="300px" class="logo-background-square"></rect><!----><defs data-v-29081953=""><!----></defs><g data-v-29081953="" id="a9dd5aca-4c43-43af-8ade-8db6d5b48452" fill="#ffffff" stroke="none" transform="matrix(2.450106918752539,0,0,2.450106918752539,27.239842718508804,27.493429681855645)"><path d="M32.302 36.596L5.979 25.908l5.469-1.997 26.01 10.56zM44.692 31.671L18.37 20.983l5.468-1.997 26.011 10.56zM55.466 27.309L29.144 16.621l5.468-1.997 26.011 10.56zM31.531 47.455L7.105 37.538l-1.897-4.972 26.291 10.66zM31.531 56.002l-18.516-7.556-1.695-4.893 20.179 8.219zM31.531 64.634l-10.223-4.197-2.283-5.133 12.474 5.1zM35.526 72.919l29.345 12.457.001-33.399-29.346-12.471v33.413zm4.562-26.701l20.614 8.752v23.448l-20.614-8.751V46.218z"></path><path d="M83.089 44.584v-.427l-1.156.494 1.156-.501-.502-.204 11.911-5.051-29.234-11.586L36.06 38.882l29.204 12.411 12.243-5.192.534.217v.407l-12.386 5.253-.001 33.399L95 72.919V39.532l-11.911 5.052zm.75-5.333l-6.266 2.659-18.568-7.54 6.259-2.48 18.575 7.361zm-18.575 7.886l-18.576-7.885 7.06-2.798 18.748 7.613-7.232 3.07zM90.26 69.539L70.004 78.14V55.098l8.037-3.412v5.479l1.245-2.58.846.48.78-1.84.724 1.013.613-.613.84 1.382v-5.465l7.171-3.044v23.041z"></path><path d="M87.667 57.529c0 1.296-1.052 2.787-2.35 3.331-1.296.541-2.348-.07-2.348-1.367 0-1.299 1.052-2.79 2.348-3.331 1.298-.543 2.35.069 2.35 1.367zM80.641 60.467c0 1.296-1.052 2.786-2.351 3.329-1.296.543-2.348-.071-2.348-1.367 0-1.297 1.052-2.789 2.348-3.331 1.299-.541 2.351.071 2.351 1.369zM81.579 70.204c-3.589 1.5-6.657.217-7.294-3.05l1.738-1.039c.484 2.489 2.822 3.467 5.556 2.324 2.737-1.144 5.074-4.074 5.559-6.969l1.738-.414c-.637 3.8-3.705 7.648-7.297 9.148z"></path></g><!----></svg>