<svg data-v-29081953="" xmlns="http://www.w3.org/2000/svg" viewBox="0 0 300 300"><!----><defs data-v-29081953=""><!----></defs><rect data-v-29081953="" fill="#581C2F" x="0" y="0" width="300px" height="300px" class="logo-background-square"></rect><defs data-v-29081953=""><!----></defs><g data-v-29081953="" id="014e0420-990b-406f-8c86-af71cc08b0a7" fill="#FFFFFF" transform="matrix(3.052329829875108,0,0,3.052329829875108,124.59864688374593,113.81100956481372)"><path d="M11.32 3.82L9.14 11.07L7.07 3.82L5.83 3.82L3.75 11.07L1.57 3.82L0 3.82L3.08 13.15L4.33 13.15L6.45 5.96L8.56 13.15L9.81 13.15L12.88 3.82ZM20.07 9.70C20.07 7.73 18.74 6.36 16.81 6.36C14.83 6.36 13.40 7.89 13.40 9.84C13.40 11.80 14.82 13.31 16.99 13.31C18.13 13.31 19.09 12.92 19.69 12.25L18.71 11.46C18.29 11.94 17.72 12.19 16.98 12.19C15.74 12.19 14.99 11.33 14.89 10.15L20.07 10.15ZM16.81 7.50C17.85 7.50 18.52 8.12 18.67 9.17L14.95 9.17C15.15 8.17 15.84 7.50 16.81 7.50ZM21.34 10.03L24.98 10.03L24.98 8.87L21.34 8.87ZM28.38 3.82L26.89 3.82L26.89 13.15L28.38 13.15ZM33.63 13.34C35.71 13.34 37.17 11.81 37.17 9.84C37.17 7.89 35.71 6.36 33.63 6.36C31.51 6.36 30.07 7.89 30.07 9.84C30.07 11.81 31.51 13.34 33.63 13.34ZM33.63 12.13C32.40 12.13 31.54 11.14 31.54 9.84C31.54 8.56 32.40 7.57 33.63 7.57C34.84 7.57 35.70 8.56 35.70 9.84C35.70 11.14 34.84 12.13 33.63 12.13ZM44.36 3.82L37.74 3.82L37.74 5.09L40.32 5.09L40.32 13.15L41.81 13.15L41.81 5.09L44.36 5.09Z"></path></g><defs data-v-29081953=""><!----></defs><g data-v-29081953="" id="648d8e04-ea8e-43b2-a2dc-b8e89fd4af2e" stroke="#D44553" fill="none" transform="matrix(0.7952911429857418,0,0,0.7952911429857418,36.02354428507129,110.27520528420574)"><style>.st2{stroke:#000;stroke-miterlimit:10}.st2,.st3{fill:none}</style><path d="M20.9 68.7l2-3.1c4.9 2 10.5 1.5 15-1.4l8.5 11c-2 3.3-.5 7.8 3.5 9 1.5.4 3.1.3 4.5-.5 2.7-1.5 3.7-4.6 2.8-7.3h.1l19.3-10.3c.1-.1.2-.1.2-.2 4.5 4.8 12.4 4.5 16.4-1.2 1.6-2.2 2.2-5.2 1.6-8-1-4.5-4.6-7.6-8.7-8.2V32.2h-3v16.3c-.8.1-1.7.3-2.5.7 0-.1 0-.1-.1-.2l-9-13.3s-.1 0-.1-.1c2.3-2.4 2.3-6.2-.1-8.5s-6.2-2.3-8.5.1c-.3.3-.5.6-.7.9l-.2-.2-32.9-12v-.3c0-2.9-1.9-5.5-4.8-6.1-3.9-.8-7.2 2.2-7.2 5.9 0 3.3 2.7 6 6 6l3 12.8c-9 1.7-14.9 10.3-13.2 19.3.8 4.5 3.5 8.4 7.3 10.8l-1.6 2.5m45.7-36.3c.4-1.2 1.7-2 3-2 1 0 1.9.5 2.4 1.4 1.2 2.3-.4 4.6-2.6 4.6-1.9 0-3.5-1.9-2.8-4zM23 18.4c-1.7 0-3-1.3-3-3s1.3-3 3-3 3 1.3 3 3-1.3 3-3 3zm2.6 2.5c1-.5 1.9-1.2 2.5-2.1L61 30.9h.2v.6c0 .3 0 .7.1 1l-17.8 10c-2.9-5.2-8.4-8.5-14.4-8.5l-3-13.2-.5.1zm5.7 42.8c-9.2 1.5-17.1-6.4-15.6-15.6.9-5.6 5.4-10.1 11-11 9.2-1.5 17.1 6.4 15.6 15.6-.9 5.6-5.4 10.1-11 11zm20.2 17.7c-1.7 0-3-1.3-3-3s1.3-3 3-3 3 1.3 3 3-1.3 3-3 3zm4.4-7.6c-.1.1-.2.1-.3.2-1.9-1.8-4.8-2.2-7.1-.8l-8.3-10.7c2.3-2.2 4-5 4.8-8.1L74 59c0 1.6.4 3.1 1.1 4.5L55.9 73.8zM74.4 56l-28.9-4.6v-1c0-1.8-.3-3.6-.9-5.3l17.7-10c1.5 2 4.2 2.8 6.6 1.9 0 .1.1.2.1.2l9 13.4c-1.7 1.4-3 3.3-3.6 5.4zm17.5 4.1c-.5 3.2-3.1 5.7-6.2 6.2-5.1.8-9.4-3.5-8.6-8.6.5-3.2 3.1-5.7 6.2-6.2 5.1-.8 9.4 3.5 8.6 8.6zM30.1 91.3H5V69h3.6v14.5c2.4-1.3 4.8-2.7 7.2-4v4.1c2.4-1.3 4.8-2.7 7.2-4v4c2.4-1.3 4.8-2.6 7.2-4-.1 3.9-.1 7.8-.1 11.7z"></path><path d="M37.9 47.5c-2.6-2.5-5.6-3.8-9.2-3.8-3.5 0-6.6 1.3-9.1 3.8l-1.1-1.1c5.2-5.5 14.7-5.9 20.5 0l-1.1 1.1z"></path><path d="M36.2 49.2c-.4.4-.8.7-1.1 1.1-1.7-1.7-3.8-2.6-6.3-2.6s-4.6.9-6.3 2.7c-.4-.4-.7-.8-1.1-1.1 3.7-4.1 10.7-4.4 14.8-.1z"></path><path d="M33.4 52c-.4.4-.8.7-1.1 1.1-2.3-2-4.7-2-7 0L24.2 52c2.1-2.4 6.5-2.8 9.2 0z"></path><path d="M93.7 8.7c.2.1.5.2.7.4s.3.5.3.7v12.6c0 .4-.1.8-.4 1-.2.2-.4.2-.6.3H75.1c-.4 0-.8-.2-1-.5-.1-.2-.2-.3-.2-.5V9.6c.1-.2.2-.3.2-.5.1-.2.4-.4.7-.5 6.2.1 12.5.1 18.9.1zM75 10v12.4h18.3V10H75z" stroke-miterlimit="10"></path><path stroke="#000" stroke-width="2" stroke-miterlimit="10" d="M89.9 28.2H78.1"></path><path d="M82.2 24.1h3.9v2c0 .7.6 1.2 1.3 1.2h1.3c.5 0 .8.5.6 1-.1.2-.3.3-.5.3h-9.2c-.3 0-.5-.1-.7-.4-.2-.4.1-.9.6-.9h1.2c.9 0 1.4-.5 1.4-1.4v-1.6c.1-.1.1-.1.1-.2z"></path><circle cx="29" cy="55.9" r="2.1"></circle><path class="st3" d="M21.1 68.4l.8.6M17.4 65.5l3.7 2.9M85.3 32.5h.8M84.9 32.5h.4M83.1 32.5h1.8M82.3 32.5h.8"></path></g><defs data-v-29081953=""><!----></defs><g data-v-29081953="" id="6599a0fd-e282-41ba-b089-d8580a747974" fill="#FFFFFF" transform="matrix(0.6220202024626338,0,0,0.6220202024626338,124.3622791912385,162.72523204236626)"><path d="M0.38 12.39C0.38 12.63 0.42 12.68 0.62 12.68C0.94 12.68 1.69 12.64 2.41 12.64C3.07 12.64 3.86 12.68 4.09 12.68C4.26 12.68 4.28 12.61 4.28 12.40C4.28 12.24 4.26 12.18 4.09 12.18L3.12 12.18C3.02 12.18 3.00 9.55 3.00 7.76L3.00 5.87C3.00 5.14 3.02 3.70 3.12 3.70L4.03 3.70C4.26 3.70 4.28 3.68 4.28 3.49C4.28 3.25 4.26 3.19 4.09 3.19C3.77 3.19 3.09 3.23 2.44 3.23C1.62 3.23 0.91 3.19 0.69 3.19C0.50 3.19 0.43 3.21 0.43 3.44C0.43 3.68 0.52 3.70 0.69 3.70L1.61 3.70C1.65 3.70 1.72 4.79 1.72 5.71L1.72 7.08C1.72 8.92 1.71 12.18 1.60 12.18L0.67 12.18C0.45 12.18 0.38 12.19 0.38 12.39ZM12.25 8.15C12.25 11.17 14.59 12.80 16.84 12.80C19.63 12.80 21.60 10.89 21.60 8.06C21.60 5.33 19.85 3.11 17.05 3.11C14.45 3.11 12.25 5.10 12.25 8.15ZM13.65 7.77C13.65 5.64 14.94 3.58 16.91 3.58C19.15 3.58 20.23 5.81 20.23 7.94C20.23 10.08 19.12 12.32 16.86 12.32C14.87 12.32 13.65 10.28 13.65 7.77ZM28.88 5.01C28.88 5.17 29.06 5.17 29.19 5.17C29.34 5.17 29.39 5.15 29.40 4.97L29.51 3.89C29.53 3.81 30.07 3.75 30.83 3.75L32.82 3.75C32.87 3.75 32.90 4.35 32.90 4.97C32.90 6.43 32.84 12.18 32.72 12.18L31.85 12.18C31.63 12.18 31.58 12.19 31.58 12.39C31.58 12.63 31.60 12.68 31.79 12.68C32.12 12.68 33.10 12.64 33.52 12.64C33.94 12.64 34.87 12.68 35.20 12.68C35.36 12.68 35.39 12.61 35.39 12.40C35.39 12.24 35.36 12.18 35.20 12.18L34.20 12.18C34.17 12.18 34.17 11.76 34.17 11.31C34.17 9.56 34.26 5.96 34.26 5.92C34.27 5.18 34.27 3.75 34.37 3.75L35.98 3.75C36.69 3.75 37.52 3.78 37.52 3.85C37.52 3.99 37.48 4.90 37.48 4.97C37.48 5.12 37.55 5.17 37.73 5.17C37.93 5.17 38.00 5.17 38.00 5.03C38.00 3.93 38.05 3.40 38.05 3.14C38.05 2.94 37.97 2.94 37.77 2.94C37.62 2.94 37.56 2.98 37.55 3.16C37.55 3.23 36.90 3.28 36.06 3.28L31.07 3.28C30.41 3.28 29.60 3.28 29.60 3.21L29.60 3.07C29.60 2.94 29.47 2.94 29.37 2.94C29.15 2.94 29.12 3.00 29.11 3.19C29.05 3.89 28.88 4.97 28.88 5.01ZM55.54 12.39C55.54 12.63 55.57 12.68 55.76 12.68C56.00 12.68 56.50 12.64 56.92 12.64C57.34 12.64 57.83 12.68 58.16 12.68C58.32 12.68 58.35 12.61 58.35 12.40C58.35 12.24 58.32 12.18 58.16 12.18L57.19 12.18C57.13 12.18 57.12 11.54 57.12 10.79C57.12 8.96 57.16 6.13 57.23 4.28C57.26 3.88 57.29 3.91 57.43 4.27L60.69 12.32C60.79 12.54 60.86 12.74 60.97 12.74C61.07 12.74 61.14 12.63 61.22 12.45C61.56 11.79 61.74 11.75 62.01 11.09L64.60 4.47C64.72 4.16 64.76 4.02 64.78 4.47C64.81 5.66 64.85 8.47 64.85 9.74C64.85 10.99 64.81 12.18 64.75 12.18L64.12 12.18C63.90 12.18 63.83 12.19 63.83 12.39C63.83 12.63 63.85 12.68 64.05 12.68C64.25 12.68 64.95 12.64 65.55 12.64C65.97 12.64 66.72 12.68 67.05 12.68C67.21 12.68 67.24 12.61 67.24 12.40C67.24 12.22 67.19 12.18 67.02 12.18L66.29 12.18C66.18 12.18 66.08 8.44 66.08 6.03L66.08 4.77C66.08 4.17 66.11 3.77 66.15 3.70L66.81 3.70C67.03 3.70 67.07 3.68 67.07 3.49C67.07 3.25 67.06 3.19 66.86 3.19C66.54 3.19 65.86 3.23 65.44 3.23L64.76 3.23C64.54 3.23 64.51 3.29 64.40 3.58L61.66 10.72C61.57 10.95 61.54 11.02 61.43 10.74L58.49 3.40C58.42 3.22 58.37 3.19 58.23 3.19C58.14 3.19 57.65 3.23 57.34 3.23C56.84 3.23 55.99 3.19 55.79 3.19C55.65 3.19 55.65 3.26 55.65 3.47C55.65 3.64 55.65 3.70 55.79 3.70L56.49 3.70C56.76 3.70 56.76 3.72 56.76 3.84C56.76 4.82 56.55 9.94 56.50 10.79C56.46 11.55 56.46 12.18 56.41 12.18L55.83 12.18C55.61 12.18 55.54 12.19 55.54 12.39ZM75.00 12.39C75.00 12.63 75.00 12.68 75.19 12.68C75.36 12.68 75.68 12.64 76.26 12.64C76.87 12.64 77.42 12.68 77.57 12.68C77.74 12.68 77.74 12.61 77.74 12.40C77.74 12.24 77.74 12.18 77.57 12.18L76.50 12.18C76.50 12.18 76.48 12.18 76.48 12.17C76.50 11.87 77.27 9.90 77.62 9.02C77.69 8.83 77.70 8.79 77.91 8.79L80.74 8.79C80.88 8.79 80.88 8.81 80.95 9.03C81.21 9.77 81.93 11.89 81.93 12.17C81.93 12.18 81.91 12.18 81.91 12.18L81.14 12.18C80.92 12.18 80.91 12.19 80.91 12.39C80.91 12.63 80.92 12.68 81.09 12.68C81.41 12.68 82.28 12.64 82.70 12.64C83.12 12.64 83.79 12.68 84 12.68C84.14 12.68 84.15 12.61 84.15 12.40C84.15 12.24 84.14 12.18 84 12.18L83.51 12.18C83.41 12.18 82.39 9.34 81.83 7.78L80.15 3.07C80.14 3.00 80.07 2.94 79.98 2.94C79.86 2.94 79.76 3.16 79.67 3.35C79.52 3.71 79.28 3.84 79.17 4.13L77.69 7.57C77.50 8.01 75.80 12.18 75.67 12.18L75.25 12.18C75.03 12.18 75.00 12.19 75.00 12.39ZM77.90 8.33C77.90 8.30 77.92 8.23 77.97 8.13L79.34 4.77C79.38 4.66 79.41 4.61 79.44 4.61C79.45 4.61 79.46 4.63 79.51 4.77L80.67 8.18C80.70 8.25 80.71 8.29 80.71 8.32C80.71 8.36 80.68 8.37 80.58 8.37L78.08 8.37C77.90 8.37 77.90 8.34 77.90 8.33ZM91.84 12.46C91.84 12.63 91.85 12.70 92.04 12.70C92.19 12.70 93.42 12.64 93.81 12.64C94.67 12.64 95.55 12.70 96.40 12.70C99.02 12.70 101.42 11.07 101.42 7.91C101.42 4.89 99.08 3.07 96.04 3.07C95.48 3.07 94.22 3.23 93.18 3.23C92.71 3.23 92.25 3.22 92.19 3.22C92.01 3.22 91.99 3.32 91.99 3.49C91.99 3.68 92.06 3.70 92.19 3.70L93.16 3.67C93.18 3.67 93.18 4.20 93.18 4.72C93.18 5.91 93.10 12.21 93.02 12.21L92.12 12.21C91.94 12.21 91.84 12.22 91.84 12.46ZM94.42 11.40C94.42 9.46 94.42 7.52 94.43 5.60C94.43 5.03 94.47 3.61 94.51 3.60C94.81 3.53 95.40 3.51 95.75 3.51C98.31 3.51 99.92 5.75 99.92 7.73C99.92 8.95 99.88 12.25 95.20 12.25C94.93 12.25 94.53 12.25 94.43 12.21C94.42 12.19 94.42 11.79 94.42 11.40ZM109.52 12.39C109.52 12.63 109.55 12.68 109.75 12.68C110.07 12.68 111.03 12.64 111.45 12.64C111.87 12.64 116.38 12.68 116.70 12.68C116.83 12.68 116.98 12.66 116.98 12.49C116.98 12.07 117.03 11.23 117.03 10.53C117.03 10.39 116.87 10.39 116.75 10.39C116.63 10.39 116.51 10.39 116.51 10.51C116.49 11.06 116.49 11.41 116.47 11.76C116.44 12.01 116.44 12.04 116.34 12.04C116.19 12.04 113.55 12.08 112.06 12.08C111.99 12.08 111.94 10.11 111.90 8.26C111.90 8.06 111.94 8.09 112.08 8.09L114.37 8.09C115.07 8.09 115.09 8.20 115.09 8.30L115.09 9.00C115.09 9.14 115.28 9.14 115.39 9.14C115.49 9.14 115.61 9.13 115.61 9.02C115.61 8.83 115.58 8.33 115.58 7.83C115.58 7.32 115.61 6.83 115.61 6.71C115.61 6.59 115.47 6.58 115.37 6.58C115.26 6.58 115.09 6.59 115.09 6.72L115.09 7.45C115.09 7.62 114.65 7.63 114.37 7.63L112.03 7.63C111.92 7.63 111.90 7.63 111.90 7.45C111.89 6.75 111.87 6.06 111.87 5.46C111.87 5.12 111.87 3.71 111.96 3.71C113.19 3.71 115.70 3.75 115.70 3.81C115.70 3.99 115.65 4.83 115.65 4.89C115.65 5.04 115.72 5.10 115.91 5.10C116.10 5.10 116.17 5.08 116.17 4.94C116.17 3.85 116.23 3.36 116.23 3.09C116.23 2.91 116.14 2.90 115.95 2.90C115.75 2.90 115.75 2.95 115.72 3.11C115.71 3.25 115.78 3.25 114.87 3.25C114.25 3.25 112.11 3.29 111.34 3.29C110.85 3.29 109.91 3.25 109.82 3.25C109.69 3.25 109.63 3.30 109.63 3.49C109.63 3.72 109.70 3.74 109.87 3.74L110.53 3.74C110.59 3.74 110.66 4.79 110.66 5.71C110.66 5.80 110.71 8.27 110.71 9.83L110.71 11.17C110.71 11.84 110.68 12.18 110.66 12.18L109.80 12.18C109.58 12.18 109.52 12.21 109.52 12.39ZM135.00 5.77C135.00 9.07 139.99 8.20 139.99 10.65C139.99 11.59 139.15 12.31 138.17 12.31C137.34 12.31 135.74 11.83 135.72 11.47L135.63 10.15C135.62 9.97 135.55 9.91 135.37 9.91L135.30 9.91C135.09 9.91 135.09 10.00 135.09 10.12C135.09 10.32 135.20 11.66 135.23 12.17C135.24 12.38 136.50 12.85 138.04 12.85C139.61 12.85 141.22 11.87 141.22 10.11C141.22 6.79 136.25 7.87 136.25 5.32C136.25 4.31 137.03 3.56 138.07 3.56C139.09 3.56 140.18 4.58 140.18 4.89C140.18 5.01 140.14 5.73 140.14 5.78C140.14 5.92 140.18 5.99 140.45 5.99C140.69 5.99 140.70 5.94 140.70 5.75C140.70 5.04 140.78 3.68 140.78 3.53C140.78 3.30 140.74 3.29 140.48 3.29C140.25 3.29 140.24 3.32 140.22 3.53C140.22 3.61 140.21 3.78 140.17 3.78C140.11 3.78 140.03 3.74 139.96 3.68C139.16 3.14 138.54 3.08 138.04 3.08C136.51 3.08 135.00 4.17 135.00 5.77ZM149.04 12.39C149.04 12.63 149.09 12.68 149.28 12.68C149.60 12.68 150.36 12.64 151.07 12.64C151.73 12.64 152.53 12.68 152.75 12.68C152.92 12.68 152.95 12.61 152.95 12.40C152.95 12.24 152.92 12.18 152.75 12.18L151.79 12.18C151.69 12.18 151.66 9.55 151.66 7.76L151.66 5.87C151.66 5.14 151.69 3.70 151.79 3.70L152.70 3.70C152.92 3.70 152.95 3.68 152.95 3.49C152.95 3.25 152.92 3.19 152.75 3.19C152.43 3.19 151.76 3.23 151.10 3.23C150.29 3.23 149.58 3.19 149.35 3.19C149.17 3.19 149.10 3.21 149.10 3.44C149.10 3.68 149.18 3.70 149.35 3.70L150.28 3.70C150.32 3.70 150.39 4.79 150.39 5.71L150.39 7.08C150.39 8.92 150.37 12.18 150.26 12.18L149.34 12.18C149.11 12.18 149.04 12.19 149.04 12.39ZM160.78 12.39C160.78 12.63 160.80 12.68 161 12.68C161.24 12.68 161.74 12.64 162.16 12.64C162.58 12.64 163.07 12.68 163.39 12.68C163.56 12.68 163.59 12.61 163.59 12.40C163.59 12.24 163.56 12.18 163.39 12.18L162.43 12.18C162.37 12.18 162.36 11.54 162.36 10.79C162.36 8.96 162.40 6.13 162.47 4.28C162.50 3.88 162.53 3.91 162.67 4.27L165.93 12.32C166.03 12.54 166.10 12.74 166.21 12.74C166.31 12.74 166.38 12.63 166.46 12.45C166.80 11.79 166.98 11.75 167.24 11.09L169.83 4.47C169.96 4.16 170.00 4.02 170.02 4.47C170.04 5.66 170.09 8.47 170.09 9.74C170.09 10.99 170.04 12.18 169.99 12.18L169.36 12.18C169.13 12.18 169.06 12.19 169.06 12.39C169.06 12.63 169.09 12.68 169.29 12.68C169.48 12.68 170.18 12.64 170.79 12.64C171.21 12.64 171.96 12.68 172.28 12.68C172.45 12.68 172.48 12.61 172.48 12.40C172.48 12.22 172.42 12.18 172.26 12.18L171.53 12.18C171.42 12.18 171.32 8.44 171.32 6.03L171.32 4.77C171.32 4.17 171.35 3.77 171.39 3.70L172.05 3.70C172.27 3.70 172.31 3.68 172.31 3.49C172.31 3.25 172.30 3.19 172.10 3.19C171.78 3.19 171.09 3.23 170.67 3.23L170.00 3.23C169.78 3.23 169.75 3.29 169.64 3.58L166.89 10.72C166.81 10.95 166.78 11.02 166.67 10.74L163.73 3.40C163.66 3.22 163.60 3.19 163.46 3.19C163.38 3.19 162.89 3.23 162.58 3.23C162.08 3.23 161.22 3.19 161.03 3.19C160.89 3.19 160.89 3.26 160.89 3.47C160.89 3.64 160.89 3.70 161.03 3.70L161.73 3.70C161.99 3.70 161.99 3.72 161.99 3.84C161.99 4.82 161.78 9.94 161.74 10.79C161.70 11.55 161.70 12.18 161.64 12.18L161.07 12.18C160.85 12.18 160.78 12.19 160.78 12.39ZM180.38 3.51C180.38 3.75 180.42 3.79 180.63 3.79L181.55 3.77C181.61 3.77 181.61 4.47 181.61 5.24L181.61 5.96C181.61 7.70 181.59 12.18 181.48 12.18L180.81 12.18C180.59 12.18 180.52 12.19 180.52 12.39C180.52 12.63 180.53 12.68 180.73 12.68C180.85 12.68 181.83 12.64 182.25 12.64C182.67 12.64 183.54 12.68 183.86 12.68C184.03 12.68 184.06 12.61 184.06 12.40C184.06 12.24 184.03 12.18 183.86 12.18L182.87 12.18C182.83 12.18 182.81 10.60 182.81 9.58L182.81 8.65C182.81 8.57 182.81 8.54 182.91 8.54C183.30 8.54 183.62 8.58 184.13 8.58C186.12 8.58 187.52 7.83 187.52 6.01C187.52 4.09 186.03 3.22 184.11 3.22C183.79 3.22 182.70 3.29 182.28 3.29C182.04 3.29 180.85 3.26 180.63 3.26C180.45 3.26 180.38 3.28 180.38 3.51ZM182.83 8.05L182.83 4.40C182.83 4.05 182.84 3.70 182.88 3.68C183.01 3.67 183.18 3.67 183.32 3.67C184.97 3.67 186.23 4.47 186.23 5.80C186.23 7.57 184.90 8.19 183.32 8.19C183.06 8.19 182.83 8.16 182.83 8.05ZM195.27 12.39C195.27 12.63 195.30 12.68 195.50 12.68C195.82 12.68 196.78 12.64 197.20 12.64C197.62 12.64 201.98 12.68 202.30 12.68C202.57 12.68 202.64 12.66 202.65 12.49C202.71 12.08 202.94 10.72 202.94 10.60C202.94 10.47 202.79 10.44 202.62 10.43C202.52 10.42 202.44 10.46 202.43 10.56L202.26 11.76C202.22 12.05 202.20 12.03 201.98 12.04C201.82 12.05 199.32 12.12 197.89 12.12C197.85 12.12 197.81 11.38 197.81 10.54L197.81 6.66C197.81 5.40 197.82 3.70 197.92 3.70L198.90 3.70C199.14 3.70 199.16 3.63 199.16 3.44C199.16 3.23 199.15 3.19 198.91 3.19C198.59 3.19 197.65 3.23 197.23 3.23C196.81 3.23 195.87 3.19 195.65 3.19C195.43 3.19 195.37 3.22 195.37 3.44C195.37 3.65 195.41 3.70 195.61 3.70L196.43 3.70C196.48 3.70 196.50 4.23 196.50 4.90L196.50 8.13C196.50 10.07 196.48 12.18 196.39 12.18L195.55 12.18C195.33 12.18 195.27 12.21 195.27 12.39ZM210.56 12.39C210.56 12.63 210.59 12.68 210.78 12.68C211.11 12.68 212.07 12.64 212.49 12.64C212.91 12.64 217.42 12.68 217.74 12.68C217.87 12.68 218.02 12.66 218.02 12.49C218.02 12.07 218.06 11.23 218.06 10.53C218.06 10.39 217.91 10.39 217.78 10.39C217.67 10.39 217.55 10.39 217.55 10.51C217.53 11.06 217.53 11.41 217.50 11.76C217.48 12.01 217.48 12.04 217.38 12.04C217.22 12.04 214.59 12.08 213.09 12.08C213.02 12.08 212.98 10.11 212.94 8.26C212.94 8.06 212.98 8.09 213.12 8.09L215.40 8.09C216.10 8.09 216.13 8.20 216.13 8.30L216.13 9.00C216.13 9.14 216.31 9.14 216.43 9.14C216.52 9.14 216.65 9.13 216.65 9.02C216.65 8.83 216.62 8.33 216.62 7.83C216.62 7.32 216.65 6.83 216.65 6.71C216.65 6.59 216.51 6.58 216.41 6.58C216.30 6.58 216.13 6.59 216.13 6.72L216.13 7.45C216.13 7.62 215.68 7.63 215.40 7.63L213.07 7.63C212.95 7.63 212.94 7.63 212.94 7.45C212.93 6.75 212.91 6.06 212.91 5.46C212.91 5.12 212.91 3.71 213.00 3.71C214.23 3.71 216.73 3.75 216.73 3.81C216.73 3.99 216.69 4.83 216.69 4.89C216.69 5.04 216.76 5.10 216.94 5.10C217.14 5.10 217.21 5.08 217.21 4.94C217.21 3.85 217.27 3.36 217.27 3.09C217.27 2.91 217.18 2.90 216.99 2.90C216.79 2.90 216.79 2.95 216.76 3.11C216.75 3.25 216.82 3.25 215.91 3.25C215.29 3.25 213.15 3.29 212.38 3.29C211.89 3.29 210.95 3.25 210.85 3.25C210.73 3.25 210.67 3.30 210.67 3.49C210.67 3.72 210.74 3.74 210.91 3.74L211.57 3.74C211.62 3.74 211.69 4.79 211.69 5.71C211.69 5.80 211.75 8.27 211.75 9.83L211.75 11.17C211.75 11.84 211.72 12.18 211.69 12.18L210.84 12.18C210.62 12.18 210.56 12.21 210.56 12.39Z"></path></g></svg>