<svg data-v-29081953="" xmlns="http://www.w3.org/2000/svg" viewBox="0 0 300 300"><!----><defs data-v-29081953=""><!----></defs><rect data-v-29081953="" fill="#581C2F" x="0" y="0" width="300px" height="300px" class="logo-background-square"></rect><!----><defs data-v-29081953=""><!----></defs><g data-v-29081953="" id="19587174-dc01-458f-8c57-4a675b80cf78" fill="none" stroke="#D44553" transform="matrix(2.443678184881772,0,0,2.443678184881772,27.781609075591128,27.938268139830758)"><style>.st2{stroke:#000;stroke-miterlimit:10}.st2,.st3{fill:none}</style><path d="M20.9 68.7l2-3.1c4.9 2 10.5 1.5 15-1.4l8.5 11c-2 3.3-.5 7.8 3.5 9 1.5.4 3.1.3 4.5-.5 2.7-1.5 3.7-4.6 2.8-7.3h.1l19.3-10.3c.1-.1.2-.1.2-.2 4.5 4.8 12.4 4.5 16.4-1.2 1.6-2.2 2.2-5.2 1.6-8-1-4.5-4.6-7.6-8.7-8.2V32.2h-3v16.3c-.8.1-1.7.3-2.5.7 0-.1 0-.1-.1-.2l-9-13.3s-.1 0-.1-.1c2.3-2.4 2.3-6.2-.1-8.5s-6.2-2.3-8.5.1c-.3.3-.5.6-.7.9l-.2-.2-32.9-12v-.3c0-2.9-1.9-5.5-4.8-6.1-3.9-.8-7.2 2.2-7.2 5.9 0 3.3 2.7 6 6 6l3 12.8c-9 1.7-14.9 10.3-13.2 19.3.8 4.5 3.5 8.4 7.3 10.8l-1.6 2.5m45.7-36.3c.4-1.2 1.7-2 3-2 1 0 1.9.5 2.4 1.4 1.2 2.3-.4 4.6-2.6 4.6-1.9 0-3.5-1.9-2.8-4zM23 18.4c-1.7 0-3-1.3-3-3s1.3-3 3-3 3 1.3 3 3-1.3 3-3 3zm2.6 2.5c1-.5 1.9-1.2 2.5-2.1L61 30.9h.2v.6c0 .3 0 .7.1 1l-17.8 10c-2.9-5.2-8.4-8.5-14.4-8.5l-3-13.2-.5.1zm5.7 42.8c-9.2 1.5-17.1-6.4-15.6-15.6.9-5.6 5.4-10.1 11-11 9.2-1.5 17.1 6.4 15.6 15.6-.9 5.6-5.4 10.1-11 11zm20.2 17.7c-1.7 0-3-1.3-3-3s1.3-3 3-3 3 1.3 3 3-1.3 3-3 3zm4.4-7.6c-.1.1-.2.1-.3.2-1.9-1.8-4.8-2.2-7.1-.8l-8.3-10.7c2.3-2.2 4-5 4.8-8.1L74 59c0 1.6.4 3.1 1.1 4.5L55.9 73.8zM74.4 56l-28.9-4.6v-1c0-1.8-.3-3.6-.9-5.3l17.7-10c1.5 2 4.2 2.8 6.6 1.9 0 .1.1.2.1.2l9 13.4c-1.7 1.4-3 3.3-3.6 5.4zm17.5 4.1c-.5 3.2-3.1 5.7-6.2 6.2-5.1.8-9.4-3.5-8.6-8.6.5-3.2 3.1-5.7 6.2-6.2 5.1-.8 9.4 3.5 8.6 8.6zM30.1 91.3H5V69h3.6v14.5c2.4-1.3 4.8-2.7 7.2-4v4.1c2.4-1.3 4.8-2.7 7.2-4v4c2.4-1.3 4.8-2.6 7.2-4-.1 3.9-.1 7.8-.1 11.7z"></path><path d="M37.9 47.5c-2.6-2.5-5.6-3.8-9.2-3.8-3.5 0-6.6 1.3-9.1 3.8l-1.1-1.1c5.2-5.5 14.7-5.9 20.5 0l-1.1 1.1z"></path><path d="M36.2 49.2c-.4.4-.8.7-1.1 1.1-1.7-1.7-3.8-2.6-6.3-2.6s-4.6.9-6.3 2.7c-.4-.4-.7-.8-1.1-1.1 3.7-4.1 10.7-4.4 14.8-.1z"></path><path d="M33.4 52c-.4.4-.8.7-1.1 1.1-2.3-2-4.7-2-7 0L24.2 52c2.1-2.4 6.5-2.8 9.2 0z"></path><path d="M93.7 8.7c.2.1.5.2.7.4s.3.5.3.7v12.6c0 .4-.1.8-.4 1-.2.2-.4.2-.6.3H75.1c-.4 0-.8-.2-1-.5-.1-.2-.2-.3-.2-.5V9.6c.1-.2.2-.3.2-.5.1-.2.4-.4.7-.5 6.2.1 12.5.1 18.9.1zM75 10v12.4h18.3V10H75z" stroke-miterlimit="10"></path><path stroke="#000" stroke-width="2" stroke-miterlimit="10" d="M89.9 28.2H78.1"></path><path d="M82.2 24.1h3.9v2c0 .7.6 1.2 1.3 1.2h1.3c.5 0 .8.5.6 1-.1.2-.3.3-.5.3h-9.2c-.3 0-.5-.1-.7-.4-.2-.4.1-.9.6-.9h1.2c.9 0 1.4-.5 1.4-1.4v-1.6c.1-.1.1-.1.1-.2z"></path><circle cx="29" cy="55.9" r="2.1"></circle><path class="st3" d="M21.1 68.4l.8.6M17.4 65.5l3.7 2.9M85.3 32.5h.8M84.9 32.5h.4M83.1 32.5h1.8M82.3 32.5h.8"></path></g><!----></svg>